<svg xmlns="http://www.w3.org/2000/svg" xmlns:xlink="http://www.w3.org/1999/xlink" width="165" height="237" contentScriptType="application/ecmascript" contentStyleType="text/css" style="width:165px;height:237px" preserveAspectRatio="none" version="1.1" viewBox="0 0 165 237" zoomAndPan="magnify"><defs><filter id="f1vpffu56gnon4" width="300%" height="300%" x="-1" y="-1"><feGaussianBlur result="blurOut" stdDeviation="2"/><feColorMatrix in="blurOut" result="blurOut2" type="matrix" values="0 0 0 0 0 0 0 0 0 0 0 0 0 0 0 0 0 0 .4 0"/><feOffset dx="4" dy="4" in="blurOut2" result="blurOut3"/><feBlend in="SourceGraphic" in2="blurOut3" mode="normal"/></filter></defs><g><rect id="View" width="139" height="75.672" x="7" y="7" fill="#FEFECE" codeLine="1" filter="url(#f1vpffu56gnon4)" style="stroke:#a80036;stroke-width:1.5"/><ellipse cx="59.25" cy="23" fill="#B4A7E5" rx="11" ry="11" style="stroke:#a80036;stroke-width:1"/><path d="M60.2031,19.6406 L60.2031,26.2969 L61.9219,26.2969 Q62.5313,26.2969 62.7969,26.5313 Q63.0625,26.7656 63.0625,27.1563 Q63.0625,27.5313 62.7969,27.7656 Q62.5313,28 61.9219,28 L56.7813,28 Q56.1719,28 55.9063,27.7656 Q55.6406,27.5313 55.6406,27.1406 Q55.6406,26.7656 55.9063,26.5313 Q56.1719,26.2969 56.7813,26.2969 L58.5,26.2969 L58.5,19.6406 L56.7813,19.6406 Q56.1719,19.6406 55.9063,19.4063 Q55.6406,19.1719 55.6406,18.7813 Q55.6406,18.4063 55.9063,18.1719 Q56.1719,17.9375 56.7813,17.9375 L61.9219,17.9375 Q62.5313,17.9375 62.7969,18.1719 Q63.0625,18.4063 63.0625,18.7813 Q63.0625,19.1719 62.7969,19.4063 Q62.5313,19.6406 61.9219,19.6406 L60.2031,19.6406 Z"/><text x="79.75" y="27.91" fill="#000" font-family="sans-serif" font-size="12" font-style="italic" lengthAdjust="spacingAndGlyphs" textLength="26">View</text><line style="stroke:#a80036;stroke-width:1.5" x1="8" x2="145" y1="39" y2="39"/><line style="stroke:#a80036;stroke-width:1.5" x1="8" x2="145" y1="47" y2="47"/><text x="13" y="62.419" fill="#000" font-family="sans-serif" font-size="11" lengthAdjust="spacingAndGlyphs" textLength="63">void render()</text><text x="13" y="76.255" fill="#000" font-family="sans-serif" font-size="11" lengthAdjust="spacingAndGlyphs" textLength="127">void say(String message);</text><rect id="ConsoleView" width="139" height="75.672" x="7" y="143" fill="#FEFECE" codeLine="6" filter="url(#f1vpffu56gnon4)" style="stroke:#a80036;stroke-width:1.5"/><ellipse cx="37.3" cy="159" fill="#ADD1B2" rx="11" ry="11" style="stroke:#a80036;stroke-width:1"/><path d="M40.0656,154.875 Q40.2219,154.6563 40.4094,154.5469 Q40.5969,154.4375 40.8156,154.4375 Q41.1906,154.4375 41.425,154.7031 Q41.6594,154.9531 41.6594,155.5625 L41.6594,157.0156 Q41.6594,157.625 41.425,157.8906 Q41.1906,158.1563 40.8156,158.1563 Q40.4719,158.1563 40.2688,157.9531 Q40.0656,157.7656 39.9563,157.25 Q39.9094,156.8906 39.7219,156.7031 Q39.3938,156.3281 38.7844,156.1094 Q38.175,155.8906 37.55,155.8906 Q36.7844,155.8906 36.1438,156.2188 Q35.5188,156.5469 35.0188,157.2969 Q34.5344,158.0469 34.5344,159.0781 L34.5344,160.1719 Q34.5344,161.4063 35.425,162.2344 Q36.3156,163.0469 37.9094,163.0469 Q38.8469,163.0469 39.5031,162.7969 Q39.8938,162.6406 40.3156,162.2031 Q40.5813,161.9375 40.7219,161.8594 Q40.8781,161.7813 41.0813,161.7813 Q41.4094,161.7813 41.6594,162.0469 Q41.925,162.2969 41.925,162.6406 Q41.925,162.9844 41.5813,163.3906 Q41.0813,163.9688 40.2844,164.2969 Q39.2063,164.75 37.9094,164.75 Q36.3938,164.75 35.1906,164.125 Q34.2063,163.625 33.5188,162.5625 Q32.8313,161.4844 32.8313,160.2031 L32.8313,159.0469 Q32.8313,157.7188 33.4406,156.5781 Q34.0656,155.4219 35.1594,154.8125 Q36.2531,154.1875 37.4875,154.1875 Q38.2219,154.1875 38.8625,154.3594 Q39.5188,154.5156 40.0656,154.875 Z"/><text x="54.7" y="163.91" fill="#000" font-family="sans-serif" font-size="12" lengthAdjust="spacingAndGlyphs" textLength="73">ConsoleView</text><line style="stroke:#a80036;stroke-width:1.5" x1="8" x2="145" y1="175" y2="175"/><line style="stroke:#a80036;stroke-width:1.5" x1="8" x2="145" y1="183" y2="183"/><text x="13" y="198.419" fill="#000" font-family="sans-serif" font-size="11" lengthAdjust="spacingAndGlyphs" textLength="63">void render()</text><text x="13" y="212.255" fill="#000" font-family="sans-serif" font-size="11" lengthAdjust="spacingAndGlyphs" textLength="127">void say(String message);</text><path id="View-backto-ConsoleView" fill="none" d="M76.5,103.535 C76.5,116.86 76.5,130.6949 76.5,142.8737" codeLine="11" style="stroke:#a80036;stroke-width:1"/><polygon fill="none" points="69.5 103.327 76.5 83.326 83.5 103.326 69.5 103.327" style="stroke:#a80036;stroke-width:1"/></g></svg>